<svg width="385" height="390" viewBox="0 0 385 390" fill="none" xmlns="http://www.w3.org/2000/svg" xmlns:xlink="http://www.w3.org/1999/xlink">
<path d="M63.9268 215.851C63.9268 215.851 55.8109 217.999 62.6363 235.518C69.4617 253.038 74.5222 261.88 74.5222 261.88C74.5222 261.88 75.6409 265.901 72.3244 266.174C69.0076 266.448 61.9527 264.583 60.1013 268.422C58.181 272.404 60.7908 276.605 66.5329 280.638C72.2748 284.67 84.5318 293.966 85.6367 294.811C86.7215 295.64 87.7003 297.556 85.4712 298.106C83.2417 298.654 66.9449 298.715 67.4371 306.447C67.9289 314.179 85.7714 322.784 87.7039 323.763C89.6361 324.741 90.0311 325.641 89.7567 326.728C89.4824 327.816 84.002 327.32 79.368 327.527C74.7337 327.735 69.3964 328.788 70.0541 333.225C70.7113 337.662 80.7678 347.857 107.144 353.147L119.526 354.798L127.342 344.982C142.788 322.954 143.036 308.635 140.452 304.968C137.868 301.303 133.277 304.223 129.78 307.271C126.281 310.317 122.656 314.457 121.707 313.859C120.758 313.262 120.423 312.338 121.148 310.296C121.872 308.254 128.855 289.715 123.877 283.778C118.901 277.84 107.06 289.04 105.067 290.181C103.075 291.322 102.461 289.258 102.675 287.91C102.892 286.536 105.354 271.349 106.729 264.468C108.106 257.587 107.097 252.746 102.961 251.188C98.9718 249.686 95.1507 255.903 92.5609 257.993C89.9712 260.083 88.0086 256.401 88.0086 256.401C88.0086 256.401 85.5728 246.507 78.43 229.115C71.287 211.722 63.7656 215.906 63.7656 215.906" fill="#EEEEEE"></path>
<path d="M119.876 357.786C114.68 344.992 105.829 322.097 98.1258 302.48C90.4263 282.87 83.4395 265.121 78.3092 252.303C75.7418 245.907 73.6624 240.727 72.2185 237.128C71.5051 235.347 70.949 233.959 70.5647 233C70.3846 232.538 70.2446 232.18 70.1441 231.923C70.0512 231.679 70.0128 231.552 70.0128 231.552C70.0128 231.552 70.0756 231.669 70.1807 231.907C70.2893 232.162 70.4415 232.515 70.6373 232.971C71.037 233.923 71.6154 235.302 72.3582 237.07C73.8488 240.633 75.9683 245.802 78.5636 252.2C83.7593 264.995 90.7882 282.729 98.4868 302.339C106.189 321.955 115 344.864 120.13 357.684" fill="#E3E3E2"></path>
<path d="M69.8656 271.429C69.8771 271.405 70.1767 271.523 70.7083 271.757C71.2402 271.989 72.0002 272.347 72.9346 272.799C74.8022 273.705 77.3497 275.023 80.134 276.527C82.8745 278.022 85.3529 279.373 87.2484 280.406C88.1057 280.867 88.8293 281.254 89.4109 281.567C89.9221 281.84 90.2009 282.001 90.1893 282.026C90.1777 282.05 89.8774 281.934 89.3445 281.703C88.8126 281.469 88.0523 281.111 87.1224 280.649C85.2632 279.724 82.7341 278.375 79.95 276.869C77.2 275.396 74.7131 274.063 72.8103 273.044C71.9502 272.587 71.2245 272.202 70.6412 271.892C70.1309 271.616 69.8541 271.452 69.8656 271.429Z" fill="#E3E3E2"></path>
<path d="M91.1188 281.317C91.0223 281.27 93.5066 275.898 96.6682 269.319C99.8308 262.738 102.471 257.443 102.568 257.489C102.664 257.535 100.18 262.907 97.0176 269.487C93.8569 276.066 91.2153 281.363 91.1188 281.317Z" fill="#E3E3E2"></path>
<path d="M101.586 311.969C101.567 311.951 101.774 311.697 102.167 311.253C102.616 310.753 103.176 310.129 103.842 309.388C105.253 307.809 107.192 305.624 109.244 303.133C111.302 300.646 113.086 298.331 114.363 296.644C114.966 295.85 115.473 295.183 115.88 294.648C116.24 294.177 116.45 293.925 116.472 293.94C116.495 293.956 116.326 294.238 116.002 294.735C115.679 295.232 115.198 295.942 114.585 296.807C113.362 298.537 111.607 300.886 109.543 303.38C107.485 305.878 105.508 308.042 104.043 309.574C103.308 310.336 102.704 310.947 102.276 311.358C101.849 311.77 101.604 311.988 101.586 311.969Z" fill="#E3E3E2"></path>
<path d="M80.3947 307.257C80.4003 307.231 80.7019 307.268 81.2422 307.357C81.8625 307.47 82.6246 307.608 83.5228 307.771C85.4454 308.137 88.0953 308.668 91.0172 309.279C93.9402 309.889 96.5818 310.464 98.4905 310.898C99.3788 311.109 100.132 311.288 100.746 311.433C101.276 311.568 101.567 311.654 101.562 311.68C101.557 311.706 101.255 311.67 100.715 311.581C100.095 311.469 99.3332 311.331 98.4342 311.167C96.5112 310.802 93.8607 310.269 90.9376 309.659C88.016 309.048 85.3745 308.474 83.4666 308.039C82.5781 307.829 81.8245 307.651 81.2111 307.505C80.6806 307.371 80.3895 307.283 80.3947 307.257Z" fill="#E3E3E2"></path>
<path d="M86.1983 335.492C86.2032 335.466 86.5885 335.517 87.2808 335.631C88.0427 335.766 89.0255 335.941 90.2053 336.15C92.6717 336.605 96.0738 337.26 99.8261 338.006C103.58 338.753 106.974 339.451 109.426 339.975C110.597 340.233 111.571 340.449 112.327 340.615C113.011 340.775 113.386 340.876 113.381 340.902C113.375 340.929 112.99 340.878 112.298 340.764C111.535 340.629 110.553 340.454 109.373 340.244C106.907 339.789 103.504 339.134 99.751 338.387C95.9978 337.641 92.6047 336.943 90.1517 336.419C88.9818 336.161 88.0072 335.946 87.2514 335.779C86.568 335.619 86.1927 335.518 86.1983 335.492Z" fill="#E3E3E2"></path>
<path d="M112.767 340.59C112.747 340.571 113.002 340.243 113.481 339.664C114.006 339.034 114.692 338.212 115.518 337.221C117.236 335.158 119.598 332.298 122.116 329.067C124.639 325.84 126.847 322.859 128.429 320.689C129.19 319.648 129.822 318.784 130.306 318.121C130.751 317.516 131.008 317.189 131.031 317.205C131.052 317.219 130.838 317.576 130.429 318.207C130.022 318.839 129.418 319.744 128.653 320.848C127.125 323.061 124.949 326.074 122.421 329.307C119.9 332.542 117.5 335.38 115.726 337.4C114.837 338.408 114.11 339.216 113.594 339.764C113.08 340.312 112.787 340.607 112.767 340.59Z" fill="#E3E3E2"></path>
<path d="M308.263 382.589L246.219 279.883C244.293 276.697 245.315 272.553 248.501 270.629L311.245 232.714C314.431 230.788 318.574 231.812 320.499 234.998L382.544 337.705C384.469 340.892 383.446 345.035 380.261 346.959L317.517 384.873C314.331 386.798 310.189 385.775 308.263 382.589Z" fill="#EEEEEE"></path>
<path d="M358.582 337.084C354.227 339.715 348.565 338.318 345.934 333.963C343.302 329.608 344.7 323.945 349.055 321.314C353.409 318.683 359.072 320.081 361.702 324.435C364.332 328.79 362.936 334.453 358.582 337.084Z" fill="white"></path>
<path d="M359.542 329.931C357.964 329.931 356.411 330.361 355.026 331.198C353.021 332.409 351.609 334.327 351.048 336.601C350.487 338.873 350.845 341.229 352.055 343.234C354.556 347.37 359.951 348.705 364.09 346.204C368.225 343.704 369.558 338.305 367.059 334.167C365.849 332.163 363.931 330.751 361.657 330.19C360.956 330.017 360.247 329.931 359.542 329.931ZM359.575 348.364C358.799 348.364 358.018 348.27 357.245 348.08C354.739 347.461 352.625 345.905 351.291 343.696C348.538 339.136 350.005 333.186 354.564 330.434C359.123 327.68 365.072 329.147 367.824 333.705C370.577 338.265 369.109 344.215 364.553 346.969C363.026 347.891 361.314 348.364 359.575 348.364Z" fill="white"></path>
<path d="M275.643 268.129L269.303 271.96L268.908 271.307L274.67 267.828L273.766 266.332L274.345 265.981L275.643 268.129Z" fill="white"></path>
<path d="M273.822 278.131L273.243 278.481L270.555 274.034L271.018 273.756L275.191 274.832C276.33 275.119 276.838 274.998 277.274 274.736C278.007 274.292 278.147 273.502 277.562 272.532C277.113 271.79 276.541 271.356 275.81 271.229L275.93 270.528C276.805 270.666 277.607 271.258 278.193 272.227C278.969 273.513 278.809 274.722 277.75 275.362C277.143 275.729 276.486 275.868 275.138 275.519L271.715 274.644L273.822 278.131Z" fill="white"></path>
<path d="M278.941 284.15L278.175 282.882L276.508 283.888L276.114 283.236L277.781 282.23L275.619 278.652L276.09 278.368L282.324 279.188L282.762 279.912L276.708 279.144L278.371 281.897L279.84 281.011L280.222 281.645L278.756 282.531L279.522 283.8L278.941 284.15Z" fill="white"></path>
<path d="M284.813 293.87L284.047 292.601L282.38 293.608L281.986 292.955L283.653 291.949L281.49 288.371L281.962 288.087L288.195 288.908L288.634 289.632L282.58 288.864L284.243 291.617L285.711 290.732L286.094 291.365L284.627 292.25L285.394 293.519L284.813 293.87Z" fill="white"></path>
<path d="M288.362 299.293C287.284 299.944 285.988 299.702 285.051 298.152C284.499 297.238 284.29 296.177 284.493 295.387L285.201 295.392C285.021 296.057 285.151 296.967 285.644 297.782C286.295 298.86 287.165 299.114 287.934 298.649C288.749 298.155 288.951 297.342 287.977 295.731L287.161 294.38L290.537 292.785L292.634 296.253L292.055 296.604L290.303 293.706L288.151 294.709L288.645 295.525C289.799 297.436 289.485 298.614 288.362 299.293Z" fill="white"></path>
<path d="M291.768 304.913C292.602 304.409 292.764 303.47 292.172 302.492C291.587 301.523 290.591 301.223 289.802 301.698C289.105 302.12 288.793 303.099 289.455 304.195C290.01 305.11 290.926 305.42 291.768 304.913ZM292.174 305.544C290.988 306.261 289.664 305.787 288.92 304.556C287.902 302.871 288.517 301.249 290.519 300.04C292.675 298.738 294.51 299.238 295.549 300.958C295.894 301.529 296.118 302.124 296.114 302.67L295.43 302.726C295.449 302.267 295.269 301.784 294.984 301.314C294.158 299.945 292.748 299.598 291.028 300.637C290.883 300.725 290.707 300.843 290.528 300.977C291.416 300.871 292.255 301.379 292.786 302.257C293.546 303.516 293.334 304.843 292.174 305.544Z" fill="white"></path>
<path d="M297.345 314.266C296.285 314.907 295.004 314.629 294.08 313.098C293.528 312.183 293.313 311.113 293.515 310.324L294.224 310.328C294.044 310.993 294.18 311.912 294.678 312.737C295.313 313.788 296.152 314.072 296.939 313.596C297.701 313.135 297.876 312.3 297.164 311.124L296.891 310.669L297.371 310.38L300.634 310.808L298.675 307.565L299.254 307.214L301.718 311.29L301.256 311.569L297.916 311.139C298.664 312.541 298.359 313.653 297.345 314.266Z" fill="white"></path>
<path d="M300.851 319.948C301.684 319.445 301.848 318.507 301.256 317.528C300.671 316.559 299.673 316.259 298.885 316.734C298.188 317.156 297.877 318.136 298.538 319.232C299.092 320.147 300.009 320.458 300.851 319.948ZM301.258 320.58C300.072 321.297 298.747 320.824 298.003 319.593C296.985 317.908 297.601 316.287 299.603 315.077C301.759 313.774 303.594 314.275 304.633 315.994C304.978 316.565 305.202 317.161 305.198 317.706L304.513 317.762C304.534 317.304 304.352 316.819 304.067 316.349C303.241 314.982 301.832 314.634 300.111 315.674C299.966 315.762 299.791 315.879 299.611 316.012C300.5 315.908 301.339 316.415 301.87 317.293C302.63 318.553 302.418 319.879 301.258 320.58Z" fill="white"></path>
<path d="M309.229 323.727L308.767 324.006L301.287 324.904L300.859 324.197L308.196 323.325L306.226 320.065L305.04 320.782L304.651 320.139L306.417 319.072L309.229 323.727Z" fill="white"></path>
<path d="M314.705 332.793L314.244 333.073L306.764 333.971L306.336 333.264L313.672 332.392L311.702 329.131L310.516 329.848L310.127 329.206L311.893 328.138L314.705 332.793Z" fill="white"></path>
<path d="M314.208 338.251C314.804 339.238 315.604 339.56 316.293 339.143C317.008 338.711 317.066 337.823 316.49 336.872C315.911 335.912 315.109 335.568 314.402 335.994C313.705 336.417 313.612 337.264 314.208 338.251ZM313.507 341.123C314.287 340.652 314.37 339.687 313.693 338.563C313.013 337.44 312.125 337.074 311.345 337.545C310.557 338.021 310.468 338.978 311.147 340.101C311.825 341.225 312.72 341.599 313.507 341.123ZM313.904 341.799C312.78 342.477 311.508 341.948 310.594 340.435C309.674 338.913 309.813 337.568 310.936 336.889C311.698 336.43 312.495 336.542 313.234 337.171C313.098 336.374 313.365 335.731 314.027 335.331C315.059 334.709 316.234 335.198 317.044 336.539C317.854 337.879 317.752 339.165 316.72 339.788C316.058 340.188 315.36 340.117 314.712 339.617C314.931 340.573 314.655 341.345 313.904 341.799Z" fill="white"></path>
<path d="M319.8 345.419C320.498 344.998 320.809 344.019 320.147 342.922C319.594 342.009 318.677 341.697 317.834 342.205C317.001 342.709 316.838 343.648 317.43 344.626C318.014 345.595 319.013 345.894 319.8 345.419ZM319.084 347.077C316.928 348.38 315.092 347.879 314.054 346.159C313.708 345.589 313.484 344.995 313.489 344.448L314.173 344.393C314.152 344.85 314.333 345.334 314.619 345.806C315.444 347.173 316.854 347.521 318.575 346.481C318.72 346.393 318.895 346.275 319.075 346.142C318.186 346.247 317.347 345.739 316.817 344.86C316.056 343.601 316.268 342.274 317.427 341.573C318.614 340.857 319.938 341.33 320.683 342.563C321.701 344.247 321.085 345.867 319.084 347.077Z" fill="white"></path>
<path d="M326.084 351.626L319.743 355.457L319.35 354.803L325.11 351.323L324.207 349.829L324.787 349.478L326.084 351.626Z" fill="white"></path>
<path d="M324.264 361.628L323.684 361.978L320.996 357.531L321.459 357.252L325.632 358.328C326.771 358.616 327.28 358.495 327.715 358.233C328.448 357.789 328.588 356.998 328.004 356.03C327.554 355.287 326.983 354.853 326.251 354.726L326.371 354.024C327.246 354.163 328.048 354.755 328.634 355.723C329.41 357.01 329.251 358.218 328.191 358.859C327.584 359.225 326.926 359.364 325.578 359.016L322.156 358.141L324.264 361.628Z" fill="white"></path>
<path d="M328.94 366.566C327.88 367.207 326.6 366.93 325.675 365.399C325.122 364.484 324.908 363.413 325.111 362.624L325.818 362.628C325.639 363.293 325.775 364.213 326.272 365.037C326.908 366.088 327.746 366.372 328.535 365.896C329.295 365.436 329.471 364.602 328.759 363.424L328.486 362.969L328.966 362.68L332.229 363.107L330.27 359.865L330.85 359.515L333.312 363.591L332.85 363.871L329.511 363.439C330.26 364.842 329.954 365.954 328.94 366.566Z" fill="white"></path>
<path d="M292.962 321.736L290.209 323.4L320.896 374.198L323.65 372.534L292.962 321.736Z" fill="white"></path>
<path d="M302.412 349.803L299.659 351.467L315.398 377.521L318.153 375.857L302.412 349.803Z" fill="white"></path>
<path d="M289.314 278.412L281.025 264.691C279.758 262.593 280.431 259.867 282.527 258.6L290.856 253.568C292.952 252.302 295.679 252.975 296.946 255.07L305.234 268.791C306.502 270.889 305.829 273.615 303.732 274.881L295.405 279.915C293.308 281.182 290.581 280.509 289.314 278.412Z" fill="#E3E3E2"></path>
<path d="M283.137 258.231L284.16 257.613L290.789 268.587C291.553 269.853 293.207 270.261 294.475 269.496C295.74 268.731 296.153 267.056 295.382 265.812L288.752 254.837L289.774 254.22L296.403 265.195C297.508 267.024 296.92 269.412 295.091 270.519C293.261 271.623 290.872 271.034 289.767 269.206L283.137 258.231Z" fill="#EEEEEE"></path>
<path d="M294.271 270.316L295.293 269.7L299.844 277.232L298.822 277.849L294.271 270.316Z" fill="#EEEEEE"></path>
<path d="M337.68 303.535L304.569 248.717L309.272 245.874L342.384 300.693L337.68 303.535Z" fill="white"></path>
<path d="M156.128 4.57764e-05C155.451 9.65338 156.133 27.6284 152.615 36.6427C149.098 45.6579 144.413 54.9457 135.617 58.9774C124.786 63.9422 112.058 61.8392 100.504 64.7474C82.3939 69.3055 69.3012 85.9212 63.7111 103.742C58.1211 121.563 58.741 140.655 59.4151 159.32L151.841 172.146C151.841 172.146 152.326 134.585 160.387 124.334C168.448 114.084 206.74 104.855 219.389 76.7808C230.772 51.5164 234.204 11.4481 234.204 11.4481L156.128 4.57764e-05Z" fill="#F8F8F9"></path>
<path d="M179.177 21.2293C179.301 20.2203 178.706 19.5616 177.444 19.4051L175.766 19.1978L175.375 22.3617L177.053 22.5681C178.315 22.7245 179.053 22.2214 179.177 21.2293ZM178.7 25.3807L177.508 23.1741C177.344 23.1723 177.181 23.1616 177.001 23.1383L175.305 22.9292L175.057 24.9312L174.391 24.849L175.171 18.5382L177.533 18.8305C179.137 19.0289 180.011 19.9602 179.844 21.3115C179.721 22.3045 179.112 22.9328 178.157 23.1169L179.43 25.471L178.7 25.3807Z" fill="#E3E3E2"></path>
<path d="M185.441 25.6281L185.369 26.2046L180.907 25.6532L181.687 19.3433L186.015 19.8778L185.942 20.4551L182.283 20.0029L182.006 22.2471L185.268 22.651L185.198 23.2186L181.935 22.8155L181.646 25.1589L185.441 25.6281Z" fill="#E3E3E2"></path>
<path d="M186.731 23.1703C186.96 21.322 188.535 20.1342 190.436 20.3702C191.357 20.4837 192.148 20.8921 192.63 21.5741L192.155 21.945C191.705 21.3596 191.103 21.0557 190.382 20.9672C188.858 20.7786 187.575 21.7546 187.39 23.2516C187.205 24.7478 188.211 26.0062 189.735 26.1947C190.457 26.2841 191.115 26.1375 191.695 25.6683L192.066 26.1447C191.432 26.6881 190.563 26.9017 189.634 26.7864C187.742 26.5531 186.503 25.0177 186.731 23.1703Z" fill="#E3E3E2"></path>
<path d="M197.914 27.1698L197.844 27.7463L193.381 27.1948L194.161 20.885L198.488 21.4195L198.416 21.9968L194.757 21.5446L194.479 23.7887L197.742 24.1919L197.671 24.7603L194.409 24.3572L194.119 26.7006L197.914 27.1698Z" fill="#E3E3E2"></path>
<path d="M200.19 21.6304L200.857 21.7126L200.077 28.0225L199.411 27.9402L200.19 21.6304Z" fill="#E3E3E2"></path>
<path d="M206.917 24.6584C207.042 23.6485 206.446 22.9898 205.184 22.8334L203.507 22.626L203.117 25.781L204.793 25.9883C206.055 26.1447 206.794 25.6505 206.917 24.6584ZM207.584 24.7406C207.418 26.083 206.345 26.7739 204.741 26.5755L203.045 26.3664L202.799 28.3585L202.132 28.2772L202.911 21.9665L205.273 22.2587C206.878 22.4571 207.751 23.3884 207.584 24.7406Z" fill="#E3E3E2"></path>
<path d="M210.241 23.4584L208.022 23.184L208.095 22.6075L213.197 23.2376L213.125 23.8149L210.907 23.5406L210.2 29.2731L209.533 29.1908L210.241 23.4584Z" fill="#E3E3E2"></path>
<path d="M200.253 40.7904C200.236 40.9174 191.815 39.8752 181.449 38.4622C171.079 37.0483 162.688 35.8007 162.706 35.6729C162.723 35.545 171.141 36.5881 181.512 38.002C191.879 39.4141 200.271 40.6635 200.253 40.7904Z" fill="#E3E3E2"></path>
<path d="M199.242 48.3169C199.225 48.4438 190.805 47.4017 180.438 45.9887C170.067 44.5757 161.678 43.3263 161.695 43.1993C161.713 43.0724 170.131 44.1145 180.501 45.5276C190.867 46.9406 199.259 48.19 199.242 48.3169Z" fill="#E3E3E2"></path>
<path d="M195.799 55.9906C195.782 56.1184 187.362 55.0754 176.995 53.6624C166.624 52.2494 158.235 51.0008 158.252 50.873C158.269 50.7452 166.688 51.7882 177.057 53.2021C187.424 54.6143 195.816 55.8637 195.799 55.9906Z" fill="#E3E3E2"></path>
<path d="M189.531 63.7339C189.514 63.8608 181.095 62.8178 170.728 61.4048C160.357 59.9918 151.967 58.7433 151.984 58.6155C152.002 58.4885 160.42 59.5307 170.79 60.9437C181.157 62.3567 189.549 63.6061 189.531 63.7339Z" fill="#E3E3E2"></path>
<path d="M179.555 71.4587C179.537 71.5856 171.117 70.5435 160.75 69.1314C150.379 67.7175 141.989 66.4681 142.007 66.3412C142.024 66.2142 150.442 67.2563 160.813 68.6693C171.179 70.0823 179.572 71.3318 179.555 71.4587Z" fill="#E3E3E2"></path>
<path d="M217.087 43.3002C217.067 43.4271 214.996 43.1956 212.465 42.7836C209.932 42.3716 207.896 41.9337 207.917 41.8067C207.938 41.6807 210.007 41.9122 212.54 42.3242C215.071 42.7362 217.107 43.1742 217.087 43.3002Z" fill="#E3E3E2"></path>
<path d="M216.759 50.0096C216.738 50.1356 214.668 49.9041 212.137 49.4921C209.604 49.0801 207.569 48.6422 207.589 48.5161C207.61 48.3892 209.679 48.6207 212.212 49.0327C214.743 49.4447 216.779 49.8827 216.759 50.0096Z" fill="#E3E3E2"></path>
<path d="M214.484 59.2947C214.462 59.4216 212.391 59.1785 209.856 58.7584C207.326 58.3402 205.265 57.8969 205.314 57.8021C205.301 57.6422 207.404 57.8808 209.932 58.299C212.468 58.7191 214.505 59.1678 214.484 59.2947Z" fill="#E3E3E2"></path>
<path d="M211.196 67.1508C211.175 67.2777 209.102 67.0346 206.568 66.6146C204.038 66.1963 201.978 65.753 202.027 65.6583C202.013 65.4992 204.115 65.7378 206.643 66.1552C209.179 66.5761 211.218 67.0248 211.196 67.1508Z" fill="#E3E3E2"></path>
<path d="M204.125 74.6181C204.104 74.7459 202.031 74.5019 199.496 74.0818C196.967 73.6636 194.906 73.2203 194.955 73.1255C194.942 72.9664 197.045 73.2042 199.573 73.6225C202.109 74.0434 204.147 74.4921 204.125 74.6181Z" fill="#E3E3E2"></path>
<path d="M171.022 80.9C171.004 81.0278 158.365 79.344 142.796 77.1409C127.222 74.937 114.615 73.0467 114.633 72.9198C114.651 72.792 127.287 74.4758 142.861 76.6798C158.43 78.8838 171.04 80.7731 171.022 80.9Z" fill="#E3E3E2"></path>
<path d="M164.494 88.7964C164.493 88.8125 164.277 88.7955 163.87 88.7463C163.417 88.6864 162.827 88.6087 162.092 88.5112C160.498 88.2798 158.282 87.9571 155.568 87.5621C150.018 86.7059 142.441 85.5378 134.07 84.2481C125.677 82.9235 118.084 81.6964 112.593 80.7768C109.889 80.3102 107.683 79.9295 106.095 79.656C105.329 79.5139 104.737 79.4058 104.333 79.3182C103.93 79.2297 103.722 79.1761 103.727 79.1609C103.732 79.1457 103.948 79.1689 104.352 79.2261C104.803 79.2896 105.392 79.3736 106.124 79.4764C107.718 79.715 109.931 80.0457 112.644 80.4514C118.193 81.313 125.77 82.4883 134.142 83.7878C142.506 85.1311 150.075 86.3466 155.619 87.2368C158.324 87.6926 160.531 88.0644 162.12 88.3325C162.849 88.4657 163.435 88.572 163.885 88.6534C164.287 88.732 164.497 88.7812 164.494 88.7964Z" fill="#E3E3E2"></path>
<path d="M152.699 96.0286C152.779 96.1073 151.872 96.0108 150.376 95.8231C148.86 95.63 146.67 95.3261 143.967 94.9338C138.561 94.1509 131.1 93.0176 122.865 91.7288C114.629 90.44 107.178 89.2406 101.788 88.3487C99.1359 87.8991 96.9706 87.5318 95.4104 87.2681C94.6964 87.1368 94.1218 87.0313 93.6794 86.95C93.2844 86.8722 93.0789 86.8239 93.0816 86.8079C93.0834 86.7918 93.2951 86.8096 93.6937 86.857C94.1396 86.916 94.7187 86.9929 95.4381 87.0885C97.0046 87.3173 99.1779 87.6346 101.84 88.0233C107.287 88.8608 114.722 90.0048 122.938 91.2685C131.146 92.5698 138.574 93.746 144.017 94.6085C148.931 95.4119 151.557 95.8418 152.699 96.0286Z" fill="#E3E3E2"></path>
<path d="M192.314 85.2409C192.293 85.3688 190.222 85.1248 187.686 84.7047C185.157 84.2864 183.096 83.8431 183.145 83.7475C183.131 83.5884 185.233 83.827 187.762 84.2453C190.298 84.6654 192.336 85.1149 192.314 85.2409Z" fill="#E3E3E2"></path>
<path d="M183.208 90.3076C183.186 90.4345 181.115 90.1914 178.58 89.7714C176.051 89.3531 173.989 88.9098 174.038 88.8142C174.025 88.6551 176.128 88.8937 178.656 89.3111C181.192 89.732 183.229 90.1807 183.208 90.3076Z" fill="#E3E3E2"></path>
<path d="M170.95 98.8481C170.928 98.9751 168.856 98.732 166.321 98.311C163.792 97.8936 161.73 97.4503 161.779 97.3547C161.766 97.1956 163.869 97.4342 166.397 97.8525C168.933 98.2726 170.971 98.7212 170.95 98.8481Z" fill="#E3E3E2"></path>
<path d="M147.51 112.327C147.492 112.454 131.87 110.155 112.624 107.194C93.372 104.231 77.7856 101.728 77.8052 101.601C77.8248 101.473 93.4426 103.771 112.695 106.734C131.941 109.696 147.53 112.199 147.51 112.327Z" fill="#E3E3E2"></path>
<path d="M138.155 129.238C138.134 129.365 133.013 128.642 126.719 127.624C120.422 126.605 115.337 125.677 115.357 125.55C115.378 125.423 120.497 126.145 126.794 127.165C133.088 128.183 138.175 129.111 138.155 129.238Z" fill="#E3E3E2"></path>
<path d="M385 384.435C385 384.564 298.808 384.668 192.51 384.668C86.1738 384.668 0 384.564 0 384.435C0 384.306 86.1738 384.203 192.51 384.203C298.808 384.203 385 384.306 385 384.435Z" fill="#1D2A30"></path>
<path d="M95.5362 81.2504L95.605 84.8325C95.605 84.8325 97.0589 112.55 96.9696 116.701C96.8802 120.85 82.9858 144.631 82.9858 144.631L91.472 158.538L111.852 121.884L106.969 82.5687L106.85 81.5981" fill="#F9AD95"></path>
<path d="M105.877 76.9685C105.803 76.6771 103.093 66.8736 103.093 66.8736L92.3251 73.0834C92.3082 73.9843 95.5359 81.2504 95.5359 81.2504L97.3956 83.1755C97.3956 83.1755 106.709 82.1915 106.911 82.0968C107.113 82.002 105.877 76.9685 105.877 76.9685Z" fill="#F9AD95"></path>
<path d="M103.47 67.5912C103.492 67.5966 103.531 67.6726 103.58 67.8048C103.989 68.8979 105.181 73.8197 104.637 74.1826C104.027 74.591 102.253 74.6402 101.97 74.0235C101.688 73.4077 100.657 67.787 100.657 67.787C100.657 67.787 100.551 66.8878 101.959 66.2998C102.827 65.936 103.47 67.5912 103.47 67.5912Z" fill="#F9AD95"></path>
<path d="M100.076 66.5858C100.097 66.5912 100.135 66.668 100.185 66.7994C100.594 67.8925 101.786 72.8143 101.242 73.1781C100.631 73.5856 98.8573 73.6348 98.5748 73.019C98.2933 72.4023 97.2627 66.7824 97.2627 66.7824C97.2627 66.7824 97.1555 65.8833 98.5632 65.2943C99.4329 64.9315 100.076 66.5858 100.076 66.5858Z" fill="#F9AD95"></path>
<path d="M96.9705 66.4482C96.9929 66.4536 97.0304 66.5295 97.0805 66.6618C97.4889 67.7549 98.6813 72.6767 98.1378 73.0405C97.5274 73.448 95.7532 73.4972 95.4707 72.8805C95.1883 72.2647 94.1577 66.6448 94.1577 66.6448C94.1577 66.6448 94.0513 65.7448 95.4591 65.1568C96.3279 64.7939 96.9705 66.4482 96.9705 66.4482Z" fill="#F9AD95"></path>
<path d="M93.8963 66.3589C93.9177 66.3642 93.9561 66.4402 94.0053 66.5725C94.4138 67.6655 95.607 72.5874 95.0627 72.9511C94.4522 73.3587 92.678 73.4079 92.3956 72.7921C92.1131 72.1754 91.0826 66.5555 91.0826 66.5555C91.0826 66.5555 90.9753 65.6564 92.3839 65.0674C93.2527 64.7046 93.8963 66.3589 93.8963 66.3589Z" fill="#F9AD95"></path>
<path d="M101.578 72.5954C101.66 72.5668 101.488 71.472 101.192 70.1492C100.896 68.8274 100.589 67.779 100.506 67.8085C100.424 67.8371 100.597 68.9311 100.892 70.2538C101.188 71.5757 101.496 72.624 101.578 72.5954Z" fill="#F6865E"></path>
<path d="M98.6917 73.3569C98.7775 73.3381 98.5085 71.7866 98.0911 69.8927C97.6737 67.9989 97.2652 66.4786 97.1794 66.4974C97.0936 66.517 97.3618 68.0668 97.7801 69.9615C98.1975 71.8554 98.6059 73.3765 98.6917 73.3569Z" fill="#F6865E"></path>
<path d="M94.3783 67.8228C94.3024 67.5364 94.23 67.2769 94.1638 67.0585C94.1665 67.029 94.171 67.0129 94.179 67.0111C94.1799 67.0102 94.1808 67.0102 94.1808 67.0102C94.1951 67.0102 94.2175 67.0487 94.2461 67.1194C94.2818 67.3109 94.3265 67.5507 94.3783 67.8228Z" fill="#F89F7F"></path>
<path d="M95.6908 73.8717C95.6327 73.8717 95.4414 73.2345 95.2009 72.2737C95.1974 72.1084 95.1831 71.9198 95.1616 71.7133C95.2912 72.2934 95.4029 72.7322 95.4709 72.8806C95.5022 72.9494 95.5522 73.0102 95.6175 73.0629C95.6988 73.5598 95.7301 73.8637 95.6916 73.8708C95.6916 73.8717 95.6908 73.8717 95.6908 73.8717Z" fill="#F79069"></path>
<path d="M95.6179 73.0628C95.5527 73.0101 95.5026 72.9493 95.4713 72.8805C95.4034 72.7321 95.2917 72.2933 95.1621 71.7132C95.0432 70.6041 94.6866 68.9891 94.3791 67.8228C94.3273 67.5511 94.2826 67.3116 94.2468 67.1203C94.3997 67.4992 94.742 68.822 95.0915 70.4075C95.3265 71.4711 95.5142 72.4265 95.6179 73.0628Z" fill="#F79069"></path>
<path d="M95.2014 72.2736C95.0709 71.7534 94.9261 71.1376 94.7805 70.4762C94.4033 68.7647 94.1476 67.3338 94.1646 67.0594C94.2308 67.2775 94.3032 67.5367 94.3791 67.8227C94.6866 68.989 95.0432 70.604 95.1621 71.7132C95.1836 71.9196 95.1979 72.1082 95.2014 72.2736Z" fill="#F79069"></path>
<path d="M98.0173 80.2682L94.7609 77.6361C93.3374 76.4859 92.4134 74.8307 92.1828 73.0146L92.0059 71.6275L101.786 69.6505C101.786 69.6505 101.832 73.3015 99.0164 73.347L102.479 75.1005L98.0173 80.2682Z" fill="#F9AD95"></path>
<path d="M102.047 75.8408C102.001 75.8685 101.789 75.4431 101.2 74.8961C100.625 74.3643 99.5854 73.7065 98.211 73.6904L97.1628 73.6779L98.1493 73.3141C98.8535 73.0532 99.6185 72.7708 100.426 72.4713L100.382 72.4937C101.206 71.9843 101.939 71.0432 101.798 69.9608C101.787 69.8786 101.77 69.7857 101.753 69.7311L102.029 69.8831C99.2878 70.5596 96.8018 71.1334 94.9841 71.4426C94.0771 71.6017 93.3398 71.7063 92.8287 71.7635C92.3175 71.8198 92.0334 71.8323 92.0289 71.801C92.0182 71.7349 93.1307 71.5222 94.9207 71.1245C96.7133 70.7339 99.1752 70.111 101.919 69.4308L102.131 69.3781L102.194 69.5828C102.23 69.6981 102.244 69.7928 102.26 69.9009C102.339 70.5426 102.169 71.1852 101.842 71.6893C101.523 72.205 101.069 72.575 100.619 72.8655L100.598 72.8798L100.575 72.8878C99.7605 73.1685 98.9894 73.4339 98.2798 73.6788L98.2173 73.3025C99.7275 73.3669 100.8 74.1328 101.357 74.7379C101.928 75.3617 102.072 75.8327 102.047 75.8408Z" fill="#F6865E"></path>
<path d="M101.451 71.2959C101.528 71.2485 101.692 71.7365 102.19 72.1887C102.436 72.3916 102.858 72.5391 103.169 72.3308C103.498 72.1208 103.65 71.64 103.604 71.1135C103.486 70.008 103.427 68.9659 103.322 68.2518C103.219 67.5278 103.107 67.0809 103.173 67.0586C103.227 67.0389 103.453 67.4528 103.645 68.1874C103.84 68.931 103.949 69.9392 104.068 71.0876C104.122 71.6739 103.939 72.3853 103.39 72.6982C102.809 73.0172 102.238 72.7107 101.969 72.4318C101.679 72.1324 101.571 71.8285 101.501 71.6292C101.436 71.4264 101.423 71.3084 101.451 71.2959Z" fill="#F6865E"></path>
<path d="M68.0453 103.716C70.4256 103.578 72.6307 105.02 74.271 106.752C75.911 108.482 77.1805 110.544 78.8823 112.215C80.1522 113.461 81.6898 114.527 82.4592 116.131C83.683 118.684 82.6582 121.985 84.2007 124.358C85.0688 125.695 86.609 126.477 87.505 127.796C88.627 129.447 88.5442 131.615 88.2904 133.594C88.1141 134.969 87.8363 136.421 86.8921 137.436C86.1538 138.228 85.1045 138.645 84.0789 138.995C76.3378 141.635 67.779 141.819 59.9321 139.511" fill="#1D2A30"></path>
<path d="M51.6609 119.652C50.8039 112.808 55.7534 106.555 62.701 105.893C69.2496 105.269 75.069 110.145 76.0502 116.651C76.9106 122.353 77.6504 128.109 77.6238 130.201C77.5435 136.505 73.8556 138.959 72.3601 139.696C72.0191 139.865 71.0777 140.055 70.7014 140.109L70.6661 140.158L72.0662 147.396C72.7009 152.137 70.0542 156.366 65.3208 157.056C60.5716 157.749 56.8592 154.107 56.1339 149.361L51.6609 119.652Z" fill="#F9AD95"></path>
<path d="M74.9644 120.337C74.8603 120.485 74.0277 120.038 72.9607 120.197C71.8934 120.339 71.1895 121.003 71.0547 120.889C70.9897 120.84 71.0809 120.588 71.3857 120.29C71.6853 119.993 72.2225 119.67 72.8881 119.576C73.5535 119.482 74.1484 119.646 74.5067 119.85C74.8712 120.053 75.016 120.271 74.9644 120.337Z" fill="#1D2A30"></path>
<path d="M65.4713 122.395C65.3669 122.542 64.5331 122.095 63.4672 122.254C62.3995 122.397 61.6959 123.06 61.5612 122.946C61.4959 122.897 61.586 122.645 61.8918 122.347C62.1917 122.051 62.7291 121.727 63.3945 121.633C64.0597 121.54 64.6546 121.703 65.0128 121.906C65.3766 122.111 65.5226 122.328 65.4713 122.395Z" fill="#1D2A30"></path>
<path d="M69.1627 127.439C69.1491 127.379 69.7953 127.167 70.8508 126.873C71.1193 126.806 71.3693 126.714 71.3878 126.521C71.4234 126.315 71.2666 126.038 71.0882 125.74C70.736 125.118 70.3673 124.467 69.9797 123.783C68.4299 120.991 67.2655 118.68 67.3786 118.619C67.4917 118.557 68.8398 120.77 70.3896 123.561C70.7649 124.25 71.1239 124.907 71.4657 125.536C71.614 125.83 71.8428 126.157 71.7628 126.585C71.7191 126.799 71.5407 126.976 71.3732 127.049C71.2059 127.128 71.0533 127.153 70.9195 127.181C69.846 127.396 69.1756 127.499 69.1627 127.439Z" fill="#1D2A30"></path>
<path d="M70.6582 140.115C70.6582 140.115 66.5876 141.055 60.9825 138.708C60.9825 138.708 63.4019 143.917 71.0355 142.065L70.6582 140.115Z" fill="#F6865E"></path>
<path d="M69.0867 130.077C68.629 129.625 67.9164 129.445 67.259 129.614C66.803 129.732 66.3673 130.023 66.1414 130.441C65.9147 130.859 65.9336 131.403 66.2419 131.726C66.5889 132.088 67.2045 132.095 67.6929 131.876C68.1811 131.656 68.5703 131.257 68.938 130.862C69.0396 130.753 69.1433 130.64 69.197 130.502C69.2505 130.365 69.2417 130.197 69.1373 130.105" fill="#F6865E"></path>
<path d="M66.1291 128.635C66.3013 128.6 66.4724 129.757 67.5836 130.436C68.6936 131.116 69.91 130.806 69.9428 130.967C69.9694 131.037 69.7005 131.231 69.181 131.322C68.6723 131.414 67.9021 131.358 67.2216 130.944C66.5432 130.528 66.185 129.893 66.0764 129.423C65.9616 128.946 66.0488 128.639 66.1291 128.635Z" fill="#1D2A30"></path>
<path d="M64.7358 118.922C64.6729 119.227 63.5871 119.245 62.3574 119.579C61.1201 119.887 60.1638 120.401 59.9599 120.166C59.868 120.051 60.0039 119.753 60.3711 119.412C60.7346 119.073 61.3418 118.713 62.0816 118.519C62.8207 118.327 63.5267 118.346 64.0096 118.465C64.4963 118.583 64.7612 118.778 64.7358 118.922Z" fill="#1D2A30"></path>
<path d="M73.8871 117.048C73.7345 117.317 72.9629 117.173 72.0768 117.29C71.1868 117.376 70.4676 117.691 70.2588 117.462C70.1652 117.351 70.248 117.09 70.5412 116.813C70.8303 116.537 71.3418 116.272 71.9525 116.201C72.5624 116.132 73.121 116.275 73.4646 116.479C73.8134 116.683 73.9527 116.917 73.8871 117.048Z" fill="#1D2A30"></path>
<path d="M77.2885 115.238C75.9836 117.229 71.8433 115.999 69.3426 114.631C66.7091 116.376 63.0498 115.619 61.2252 112.95C59.7951 114.772 56.8894 114.17 55.8296 112.117C54.7702 110.062 55.3663 107.237 56.8217 105.44C58.277 103.643 60.4059 102.736 62.508 102.347C67.4921 101.427 72.9205 103.359 75.9027 107.867C77.2784 109.946 78.1039 112.747 77.2885 115.238Z" fill="#1D2A30"></path>
<path d="M57.195 105.298C52.507 104.403 47.9802 109.077 47.5117 112.422C46.6977 118.229 47.4821 118.953 46.4209 121.737C45.7315 123.546 43.3463 125.4 42.4049 127.265C41.3918 129.27 41.397 132.658 42.1 134.791C42.6931 136.591 45.1129 141.614 45.1129 141.614C45.1129 141.614 52.0881 141.385 55.6553 140.473C56.5454 140.245 57.4935 139.912 58.1735 139.295C58.8482 138.682 57.4516 136.551 57.5793 135.648C57.9452 133.074 59.8724 131.587 59.3212 129.046C58.5892 125.673 55.9366 125.501 55.9946 122.05C56.0257 120.217 58.7553 117.588 59.0056 115.773C59.2567 113.957 60.3094 107.636 57.195 105.298Z" fill="#1D2A30"></path>
<path d="M49.26 141.821C49.2845 141.797 48.9201 141.432 48.3323 140.717C47.7489 140.002 46.9429 138.917 46.2566 137.419C45.5819 135.932 45.0283 133.984 45.2416 131.824C45.4353 129.693 46.3848 127.321 48.3277 125.751C49.2932 124.968 50.397 124.377 51.3373 123.59C52.3036 122.828 52.9762 121.752 53.2901 120.676C53.6259 119.6 53.738 118.545 53.8682 117.579C53.9942 116.612 54.1405 115.72 54.4022 114.946C54.8913 113.373 55.9587 112.427 56.7867 112.077C57.6294 111.709 58.1739 111.842 58.1687 111.787C58.1704 111.777 58.0434 111.741 57.7948 111.733C57.5474 111.724 57.1711 111.756 56.7256 111.928C55.84 112.245 54.6731 113.221 54.1271 114.851C53.8371 115.65 53.6717 116.563 53.5299 117.532C53.3853 118.5 53.2597 119.535 52.9288 120.56C52.6115 121.591 52.0024 122.552 51.0791 123.28C50.1798 124.03 49.0768 124.616 48.0673 125.432C46.0186 127.091 45.0433 129.58 44.8638 131.79C44.6638 134.038 45.2702 136.04 45.9927 137.542C46.7293 139.058 47.5838 140.131 48.2104 140.821C48.5235 141.169 48.7842 141.422 48.9672 141.586C49.1501 141.751 49.2503 141.832 49.26 141.821Z" fill="#365462"></path>
<path d="M83.3629 138.785C83.3755 138.792 83.4349 138.706 83.5378 138.534C83.6478 138.365 83.7752 138.099 83.932 137.749C84.2224 137.049 84.538 135.961 84.5396 134.585C84.5456 133.22 84.2179 131.542 83.2283 129.993C82.7441 129.21 82.0798 128.525 81.4661 127.786C80.8521 127.051 80.2789 126.235 80.0695 125.265C79.652 123.306 80.2943 121.333 80.162 119.514C80.0957 117.698 79.5895 116.085 78.8739 114.911C78.1643 113.727 77.3146 112.973 76.6922 112.539C76.3776 112.322 76.126 112.169 75.9438 112.082C75.7661 111.99 75.6701 111.948 75.6631 111.96C75.6418 111.996 76.0115 112.197 76.5959 112.667C77.1771 113.131 77.9698 113.896 78.6215 115.056C79.2802 116.208 79.7386 117.766 79.7829 119.527C79.8185 120.407 79.7135 121.324 79.6108 122.296C79.5162 123.262 79.4271 124.304 79.6684 125.357C79.8984 126.421 80.5285 127.303 81.1568 128.045C81.7883 128.795 82.4435 129.461 82.9091 130.198C83.8694 131.663 84.2182 133.268 84.2486 134.588C84.2835 135.92 84.0213 136.988 83.7819 137.693C83.5319 138.399 83.3281 138.767 83.3629 138.785Z" fill="#365462"></path>
<path d="M63.5108 103.06C63.516 103.147 64.6889 102.922 66.5352 103.229C68.3472 103.533 70.8993 104.479 72.7989 106.6C74.656 108.752 75.4997 111.302 75.8079 113.121C76.1193 114.97 75.8819 116.137 75.9626 116.144C75.986 116.148 76.0634 115.864 76.1325 115.335C76.1944 114.805 76.2153 114.028 76.0962 113.079C75.8516 111.201 75.0406 108.569 73.1072 106.326C71.117 104.106 68.4501 103.179 66.5781 102.942C65.6286 102.816 64.8505 102.844 64.3224 102.904C63.7924 102.96 63.5073 103.036 63.5108 103.06Z" fill="#365462"></path>
<path d="M70.2501 112.326C70.2732 112.329 70.3269 112.078 70.3496 111.616C70.3741 111.155 70.3357 110.48 70.1468 109.671C69.7925 108.072 68.6339 105.863 66.4017 104.536C64.1578 103.226 61.6644 103.284 60.0946 103.749C59.2952 103.976 58.6857 104.27 58.2948 104.515C57.902 104.759 57.7094 104.927 57.7227 104.946C57.7632 105.02 58.5964 104.4 60.1668 104.031C61.7017 103.652 64.0733 103.653 66.1926 104.891C68.3019 106.144 69.4515 108.218 69.8648 109.744C70.3039 111.296 70.165 112.327 70.2501 112.326Z" fill="#365462"></path>
<path d="M50.0213 182.899C50.0213 182.899 53.112 189.948 52.934 193.281C52.7567 196.615 49.5686 207.443 49.5686 207.443L87.3563 210.978L87.5308 202.238L86.3936 166.283L107.463 134.224L91.5175 124.982L76.0192 145.992L72.096 144.471L55.1439 146.621V149.617L54.6584 149.676C54.6584 149.676 49.2701 150.655 44.0955 153.814C37.9898 157.543 34.8663 164.686 36.0025 171.75C36.6923 176.037 38.0286 181.246 40.6023 184.257C45.5253 190.016 50.0213 182.899 50.0213 182.899Z" fill="#9C3352"></path>
<path d="M44.661 166.117C44.661 166.117 42.7272 155.14 43.2877 154.351C43.9541 153.411 51.8952 149.996 52.016 150.344L53.76 162.411L44.661 166.117Z" fill="#9C3352"></path>
<path d="M76.8664 166.726L75.9629 187.776H83.9121V166.726H76.8664Z" fill="#9C3352"></path>
<path d="M63.7179 177.251C63.7081 177.24 63.8621 177.231 64.1689 177.219C64.5257 177.209 64.9784 177.197 65.5377 177.181C66.8138 177.161 68.5763 177.133 70.7622 177.099L70.9134 177.097L70.9148 177.251C70.9629 182.305 70.994 189.857 70.995 198.301V198.534H70.7622C70.617 198.534 70.4599 198.534 70.3025 198.534C67.6945 198.53 65.169 198.528 62.8149 198.525H62.5789L62.5904 198.291C62.8923 192.221 63.1545 186.955 63.3441 183.138C63.4484 181.321 63.5329 179.853 63.5947 178.779C63.6265 178.313 63.6523 177.934 63.6732 177.629C63.6942 177.371 63.7089 177.241 63.7179 177.251C63.7277 177.261 63.7308 177.409 63.7284 177.685C63.7224 178.003 63.7151 178.398 63.7064 178.883C63.675 179.971 63.6324 181.459 63.5797 183.298C63.4435 187.08 63.2554 192.297 63.039 198.31L62.8149 198.076C65.169 198.074 67.6945 198.071 70.3025 198.067C70.4599 198.067 70.617 198.068 70.7622 198.068L70.5297 198.301C70.5311 189.857 70.5622 182.305 70.61 177.251L70.7622 177.403C68.6133 177.368 66.8812 177.341 65.6267 177.321C65.0538 177.306 64.5902 177.293 64.2251 177.283C63.9019 177.273 63.7281 177.262 63.7179 177.251Z" fill="#FCFDFD"></path>
<path d="M94.3651 153.699L85.9762 148.4L93.3437 137.655L101.933 142.635L94.3651 153.699Z" fill="#9C3352"></path>
<path d="M61.3767 162.328H85.9762V154.35H61.3767V162.328Z" fill="#F57B9C"></path>
<path d="M85.6189 176.061C85.5878 176.055 85.6043 175.791 85.6615 175.322C85.7233 174.853 85.7994 174.175 85.8748 173.337C86.0285 171.661 86.1091 169.332 85.8772 166.777C85.6395 164.221 85.1353 161.946 84.679 160.326C84.2244 158.705 83.8606 157.722 83.9311 157.694C83.9608 157.683 84.0823 157.916 84.2771 158.349C84.4765 158.781 84.724 159.424 84.9939 160.231C85.5362 161.841 86.1 164.142 86.3409 166.734C86.5763 169.326 86.4411 171.69 86.2016 173.373C86.084 174.216 85.9572 174.893 85.8399 175.354C85.7272 175.816 85.6503 176.067 85.6189 176.061Z" fill="#1D2A30"></path>
<path d="M97.5485 128.478C97.5958 128.521 97.0436 129.224 96.1115 130.325C95.1795 131.427 93.8676 132.927 92.3985 134.564C91.848 135.172 91.3172 135.757 90.8204 136.307L90.6908 136.451L90.5317 136.344C89.1821 135.427 88.0287 134.624 87.2202 134.039C86.4118 133.454 85.9479 133.088 85.9765 133.045C86.0055 133.001 86.5228 133.287 87.3749 133.807C88.2259 134.327 89.412 135.082 90.7784 135.974L90.4897 136.009C90.9821 135.456 91.5076 134.866 92.0518 134.254C93.5218 132.616 94.8721 131.151 95.8667 130.105C96.8613 129.06 97.5002 128.435 97.5485 128.478Z" fill="#FCFDFD"></path>
<path d="M106.239 136.083C106.209 136.14 105.263 135.696 103.759 134.933C102.255 134.171 100.194 133.089 97.9303 131.869C95.665 130.649 93.6275 129.521 92.1638 128.684C90.7 127.848 89.81 127.302 89.8404 127.245C89.8716 127.188 90.8162 127.632 92.3202 128.395C93.8232 129.157 95.8866 130.239 98.1511 131.459C100.415 132.679 102.452 133.807 103.916 134.644C105.38 135.481 106.27 136.026 106.239 136.083Z" fill="#1D2A30"></path>
<path d="M21.2378 355.267L17.1875 373.578L9.80847 387.139C9.27649 388.116 9.68318 389.34 10.694 389.803C11.2606 390.064 11.912 390.036 12.4513 389.724C15.8844 387.741 28.4783 380.379 28.6992 379.023C28.9561 377.452 34.254 359.99 34.254 359.99L21.2378 355.267Z" fill="#9C3352"></path>
<path d="M11.5385 390C11.2498 390 10.9605 389.935 10.6941 389.803C10.9507 389.921 11.225 389.98 11.498 389.98C11.8279 389.98 12.1563 389.895 12.4513 389.724C14.0658 388.792 17.7059 386.669 21.1324 384.542C21.138 384.542 21.1418 384.542 21.1475 384.542C18.9329 385.924 16.1005 387.64 12.5065 389.738C12.2087 389.912 11.8736 390 11.5385 390ZM21.4752 384.328C24.6493 382.349 27.5742 380.399 28.4423 379.433C28.2486 379.739 27.9976 380.008 27.6988 380.223C26.8006 380.871 24.9244 382.176 21.4885 384.328C21.4829 384.328 21.4808 384.328 21.4752 384.328Z" fill="white"></path>
<path d="M21.1471 384.542C21.1415 384.542 21.1376 384.542 21.1321 384.542C21.2469 384.47 21.3607 384.4 21.4749 384.328C21.4805 384.328 21.4826 384.328 21.4882 384.328C21.3761 384.399 21.2627 384.47 21.1471 384.542Z" fill="#A5ADAD"></path>
<path d="M28.7472 378.79C28.7996 378.559 28.8861 378.221 29.0007 377.794L28.8117 378.565C28.7929 378.641 28.7712 378.716 28.7472 378.79Z" fill="white"></path>
<path d="M11.498 389.98C11.225 389.98 10.9507 389.921 10.6941 389.803L29.0008 377.794L29.0005 377.796C28.886 378.221 28.7995 378.559 28.7471 378.79C28.6717 379.017 28.5694 379.233 28.4423 379.433C27.5742 380.399 24.6493 382.349 21.4752 384.328C21.361 384.4 21.2473 384.47 21.1324 384.542C17.7059 386.669 14.0658 388.792 12.4513 389.724C12.1563 389.895 11.8279 389.98 11.498 389.98Z" fill="#F9A8BF"></path>
<path d="M27.0873 373.133C26.6355 373.133 26.1802 372.835 26.0343 372.4C25.8646 371.894 26.132 371.289 26.6037 371.046H26.6034C26.7297 370.962 26.8788 370.924 27.0343 370.924C27.4634 370.924 27.9406 371.212 28.1176 371.592C28.3589 372.109 27.9521 372.883 27.4148 373.077C27.309 373.115 27.1984 373.133 27.0873 373.133Z" fill="#F9A8BF"></path>
<path d="M16.8093 382.867C16.6941 382.892 16.5174 381.837 15.5597 381.058C14.6254 380.251 13.5559 380.261 13.5609 380.143C13.5559 380.094 13.8213 380.009 14.2623 380.053C14.7001 380.095 15.3017 380.306 15.8243 380.743C16.3452 381.181 16.6581 381.736 16.7747 382.16C16.8956 382.587 16.8582 382.863 16.8093 382.867Z" fill="#1D2A30"></path>
<path d="M14.9136 384.988C14.8074 385.045 14.3679 384.309 13.4922 383.808C12.6275 383.287 11.7714 383.263 11.7696 383.142C11.7399 383.037 12.7112 382.866 13.7007 383.453C14.6961 384.03 15.0204 384.961 14.9136 384.988Z" fill="#1D2A30"></path>
<path d="M19.9915 380.333C19.8851 380.399 19.2147 379.264 17.9208 378.365C16.6408 377.447 15.3469 377.194 15.3731 377.072C15.3675 376.969 16.783 377.047 18.1585 378.029C19.5433 378.996 20.0917 380.303 19.9915 380.333Z" fill="#1D2A30"></path>
<path d="M21.6878 374.869C21.6124 374.966 20.7087 374.299 19.4114 373.93C18.1181 373.544 16.9981 373.622 16.9866 373.499C16.9583 373.398 18.1356 373.123 19.5266 373.535C20.92 373.934 21.766 374.798 21.6878 374.869Z" fill="#1D2A30"></path>
<path d="M23.0129 369.524C22.9308 369.615 22.0681 368.759 20.6691 368.484C19.2767 368.176 18.1437 368.614 18.1046 368.498C18.0843 368.453 18.3396 368.273 18.819 368.133C19.2948 367.992 20.0018 367.925 20.7535 368.081C21.5046 368.238 22.125 368.583 22.5048 368.903C22.8878 369.223 23.0499 369.49 23.0129 369.524Z" fill="#1D2A30"></path>
<path d="M20.9508 367.474C20.9278 367.469 20.9463 367.213 21.0947 366.779C21.2437 366.347 21.5307 365.73 22.0855 365.108C22.3652 364.818 22.677 364.434 23.2443 364.318C23.5268 364.259 23.892 364.399 24.0484 364.693C24.2052 364.98 24.1996 365.295 24.1349 365.587C23.8319 366.738 22.5652 367.612 21.2238 367.459C19.8831 367.282 18.8836 366.247 18.6112 365.122C18.5609 364.835 18.5605 364.499 18.7777 364.226C18.9924 363.95 19.3933 363.916 19.6433 364.026C20.1642 364.24 20.4291 364.634 20.6903 364.944C21.1938 365.602 21.4522 366.228 21.5862 366.664C21.7203 367.102 21.735 367.357 21.7116 367.361C21.6358 367.394 21.4707 366.354 20.4634 365.126C20.204 364.838 19.9117 364.479 19.5312 364.348C19.3454 364.284 19.1639 364.318 19.0587 364.454C18.953 364.585 18.9349 364.822 18.9838 365.049C19.2204 365.973 20.1362 366.918 21.2723 367.05C22.4015 367.191 23.5142 366.419 23.7662 365.495C23.8239 365.272 23.8193 365.032 23.7324 364.87C23.6466 364.71 23.4757 364.629 23.2914 364.657C22.9021 364.712 22.5705 365.037 22.2982 365.308C21.2022 366.456 21.0273 367.512 20.9508 367.474Z" fill="#1D2A30"></path>
<path d="M33.1477 363.653C33.798 361.491 34.2536 359.99 34.2536 359.99L33.1477 363.653ZM20.224 359.849L20.7646 357.253L21.2373 355.267L20.224 359.849Z" fill="#B2B1B0"></path>
<path d="M33.1474 363.653L20.2205 359.863L20.2237 359.849L21.237 355.267L34.2532 359.99C34.2532 359.99 33.7977 361.491 33.1474 363.652" fill="#BC283B"></path>
<path d="M80.4809 362.043L79.3866 376.676C79.3866 376.676 93.8913 382.703 93.9512 385.427L65.5065 384.323L66.2769 361.454L80.4809 362.043Z" fill="#9C3352"></path>
<path d="M70.8643 377.276C70.3661 377.276 69.8783 376.892 69.7844 376.396C69.6853 375.872 70.0323 375.311 70.5326 375.134C70.6324 375.085 70.741 375.063 70.8528 375.063C71.314 375.063 71.8231 375.44 71.9581 375.879C72.1268 376.426 71.6188 377.136 71.0606 377.255C70.9956 377.269 70.93 377.276 70.8643 377.276Z" fill="#F9A8BF"></path>
<path d="M93.952 385.427L73.1021 384.618L93.952 385.427C93.9467 385.187 93.8287 384.921 93.6187 384.635C93.6652 384.635 93.6991 384.635 93.7456 384.636C93.9091 384.858 94.0128 385.126 93.952 385.427ZM93.2773 384.236C93.2237 384.18 93.1674 384.124 93.1076 384.067C93.179 384.112 93.263 384.169 93.3488 384.236C93.3274 384.236 93.2979 384.236 93.2773 384.236Z" fill="white"></path>
<path d="M93.7448 384.636C93.6984 384.635 93.6644 384.635 93.6179 384.635C93.5223 384.506 93.4079 384.373 93.2765 384.236C93.297 384.236 93.3265 384.236 93.348 384.236C93.4856 384.343 93.6304 384.478 93.7448 384.636Z" fill="#A5ADAD"></path>
<path d="M93.9512 385.427L73.1012 384.618L65.5065 384.323L65.6747 382.022L92.8851 383.94C92.8851 383.94 92.9771 383.984 93.1067 384.067C93.1666 384.124 93.2229 384.18 93.2765 384.236C93.4079 384.373 93.5223 384.506 93.6179 384.635C93.8279 384.921 93.9458 385.187 93.9512 385.427Z" fill="#F9A8BF"></path>
<path d="M79.8541 376.549C79.8447 376.688 79.1471 376.724 78.4464 377.143C77.7345 377.545 77.3588 378.134 77.2331 378.074C77.106 378.042 77.3456 377.219 78.203 376.726C79.056 376.225 79.8893 376.423 79.8541 376.549Z" fill="#1D2A30"></path>
<path d="M82.79 377.899C82.8165 378.035 82.2054 378.248 81.7111 378.817C81.1999 379.371 81.0561 380.003 80.9182 379.991C80.7869 380.007 80.7224 379.19 81.3508 378.495C81.9726 377.793 82.7924 377.767 82.79 377.899Z" fill="#1D2A30"></path>
<path d="M84.3452 381.535C84.2177 381.561 84.0512 380.86 84.4377 380.113C84.8186 379.363 85.4854 379.087 85.5396 379.206C85.614 379.323 85.1761 379.715 84.8682 380.333C84.5463 380.944 84.4837 381.528 84.3452 381.535Z" fill="#1D2A30"></path>
<path d="M79.7333 373.187C79.6705 373.311 79.0403 373.094 78.253 373.117C77.4653 373.124 76.8442 373.365 76.7761 373.242C76.7 373.139 77.3166 372.647 78.2443 372.633C79.1712 372.612 79.806 373.079 79.7333 373.187Z" fill="#1D2A30"></path>
<path d="M80.0694 367.549L80.0886 367.288L80.0694 367.549ZM66.0939 366.879L66.1881 363.864H66.1955L66.0939 366.879Z" fill="#B2B1B0"></path>
<path d="M80.0694 367.549L66.0939 366.879L66.1955 363.864L80.2609 364.941L80.0886 367.288L80.069 367.549" fill="#BC283B"></path>
<path d="M79.9014 370.23C79.9004 370.288 79.348 370.353 78.4762 370.168C78.043 370.075 77.5335 369.912 77.0036 369.651C76.7385 369.522 76.4686 369.367 76.2023 369.187C76.0741 369.096 75.9226 369.006 75.785 368.834C75.6367 368.683 75.5633 368.311 75.7501 368.092C75.9041 367.88 76.1656 367.795 76.3708 367.798C76.5811 367.8 76.749 367.849 76.9026 367.893C77.2165 367.982 77.5095 368.099 77.7762 368.232C78.3104 368.499 78.7398 368.83 79.0568 369.144C79.6929 369.782 79.8982 370.31 79.8497 370.334C79.7852 370.378 79.481 369.931 78.8285 369.4C78.5035 369.136 78.0859 368.86 77.5855 368.635C77.3353 368.523 77.0646 368.425 76.7772 368.35C76.4791 368.26 76.2225 368.248 76.1401 368.379C76.1101 368.429 76.1056 368.449 76.1656 368.539C76.2274 368.623 76.3468 368.708 76.4721 368.796C76.7175 368.97 76.9655 369.123 77.2085 369.256C77.6952 369.522 78.163 369.707 78.5652 369.837C79.3714 370.096 79.9066 370.155 79.9014 370.23Z" fill="#1D2A30"></path>
<path d="M79.7111 370.423C79.6616 370.441 79.405 369.934 79.3892 369.032C79.3826 368.585 79.4499 368.046 79.6441 367.48C79.7422 367.197 79.8728 366.909 80.0404 366.629C80.2181 366.354 80.4363 365.985 80.9774 365.944C81.2592 365.945 81.4844 366.174 81.5571 366.365C81.6432 366.561 81.6562 366.727 81.6831 366.893C81.7221 367.227 81.7036 367.553 81.6464 367.853C81.5333 368.455 81.2662 368.949 80.9809 369.301C80.3965 370.017 79.8103 370.16 79.8001 370.113C79.7569 370.041 80.2516 369.792 80.7041 369.099C80.9276 368.758 81.1318 368.305 81.2069 367.778C81.2449 367.516 81.2519 367.235 81.2124 366.954C81.18 366.65 81.0759 366.402 80.9617 366.428C80.8203 366.42 80.571 366.638 80.445 366.875C80.2889 367.125 80.1626 367.381 80.0624 367.634C79.864 368.141 79.767 368.631 79.731 369.045C79.6594 369.878 79.7876 370.404 79.7111 370.423Z" fill="#1D2A30"></path>
<path d="M44.4419 174.621L51.8028 175.028C52.2678 177.415 53.8837 181.064 53.8837 181.064C59.808 170.778 64.4019 156.998 65.5423 151.459C65.3765 150.906 65.1796 150.294 64.9339 149.61C64.6504 148.821 64.8934 147.326 65.0274 146.495C65.2256 145.263 65.5709 143.604 65.6746 142.836C65.9898 140.496 66.3668 140.128 67.1833 140.392C68.2934 140.752 66.7281 146.965 67.6378 147.1C68.1272 147.172 68.7248 145.043 68.8979 143.298C69.0718 141.551 69.8613 136.179 70.4383 135.821C71.2845 135.297 72.0218 136.126 71.8082 137.865C71.5921 139.626 71.3191 144.874 72.2417 144.946C73.151 145.015 73.9145 136.109 73.9145 136.109C73.9145 136.109 73.7707 134.172 74.8392 134.218C76.7664 134.301 75.2604 143.691 75.0954 144.58C74.9802 145.199 75.9813 145.312 76.0692 144.641C76.1597 143.95 76.625 135.735 78.5864 135.801C80.0927 135.852 77.4201 143.538 78.266 145.32C79.1114 147.101 79.6983 139.269 81.1364 139.377C81.6716 139.417 82.0673 139.522 81.0836 143.955C80.5552 146.336 79.0025 150.717 77.6453 154.344C75.367 166.635 65.3667 205.956 49.6892 198.759C40.9163 194.731 36.8228 174.79 36.8228 174.79L44.4419 174.621Z" fill="#F9AD95"></path>
<path d="M77.6454 154.351C77.6381 154.347 77.6639 154.257 77.7204 154.081C77.7878 153.883 77.8743 153.628 77.9825 153.308C78.2279 152.6 78.5714 151.606 79.0085 150.341C79.4459 149.05 79.982 147.47 80.5158 145.614C80.7892 144.687 81.0101 143.682 81.2168 142.605C81.3166 142.068 81.4188 141.514 81.4814 140.946C81.5079 140.662 81.5376 140.372 81.5211 140.093C81.5002 139.801 81.4548 139.562 81.2248 139.558C80.9857 139.493 80.8258 139.69 80.6624 139.938C80.5123 140.189 80.3947 140.475 80.29 140.769C80.0802 141.36 79.9157 141.988 79.7531 142.631C79.5897 143.275 79.4389 143.936 79.2435 144.61C79.1254 144.95 79.0734 145.278 78.7938 145.643C78.7415 145.688 78.6943 145.747 78.5882 145.767C78.4737 145.797 78.3875 145.752 78.3068 145.704C78.199 145.607 78.1473 145.511 78.0999 145.421C78.0154 145.231 77.964 145.038 77.9417 144.849C77.808 143.345 78.1508 141.891 78.385 140.382C78.5139 139.629 78.6503 138.868 78.7488 138.096C78.797 137.711 78.8375 137.322 78.8423 136.94C78.8567 136.585 78.7938 136.104 78.6385 136.037C78.4469 135.965 78.0999 136.182 77.9159 136.499C77.7096 136.812 77.5564 137.184 77.4255 137.562C77.1658 138.324 76.9961 139.137 76.8492 139.96C76.7064 140.785 76.5947 141.627 76.5029 142.478C76.4613 142.905 76.4194 143.334 76.3769 143.765L76.3207 144.416C76.3042 144.593 76.3046 144.96 76.0226 145.172C75.7622 145.367 75.4141 145.387 75.1363 145.207C74.9969 145.116 74.888 144.949 74.8675 144.781C74.8493 144.695 74.8647 144.615 74.8713 144.54L74.8992 144.38C74.9659 143.945 75.0326 143.508 75.1 143.069C75.2231 142.19 75.3307 141.299 75.4159 140.403C75.4996 139.506 75.5624 138.599 75.5757 137.69C75.5774 136.79 75.5712 135.848 75.3119 135.024C75.2273 134.774 75.0884 134.546 74.9341 134.481C74.7753 134.424 74.5456 134.482 74.428 134.643C74.1686 135.007 74.1249 135.609 74.1459 136.099L74.1469 136.123L74.1456 136.136C73.9854 137.897 73.7937 139.628 73.5402 141.33C73.4094 142.18 73.2708 143.023 73.0568 143.855C73.0038 144.063 72.9399 144.271 72.8662 144.479C72.7667 144.687 72.7392 144.898 72.4417 145.126C72.1842 145.249 71.9932 145.109 71.8912 145.005C71.782 144.891 71.7374 144.778 71.687 144.667C71.6005 144.445 71.5572 144.233 71.5188 144.02C71.2811 142.331 71.3792 140.705 71.4741 139.111C71.5059 138.31 71.701 137.517 71.5956 136.813C71.545 136.465 71.4089 136.116 71.1778 135.959C71.0637 135.885 70.9331 135.867 70.7931 135.9L70.584 135.989C70.5166 136.045 70.5306 136.024 70.479 136.118C70.1875 136.731 70.0454 137.505 69.8883 138.205C69.7403 138.922 69.615 139.635 69.5001 140.34C69.3863 141.044 69.2847 141.74 69.1954 142.425C69.1018 143.104 69.0558 143.793 68.9221 144.462C68.7943 145.129 68.6403 145.779 68.3978 146.401C68.3367 146.556 68.2658 146.71 68.1814 146.861C68.0763 147.002 68.0173 147.186 67.7296 147.273C67.5659 147.319 67.4238 147.206 67.3502 147.113C67.2877 147.017 67.2566 146.925 67.2319 146.836C67.1938 146.663 67.1777 146.498 67.1715 146.337C67.155 145.06 67.3442 143.889 67.4085 142.758C67.4434 142.196 67.4692 141.642 67.4039 141.13C67.3704 140.889 67.2929 140.607 67.1557 140.55C66.955 140.471 66.6953 140.428 66.5449 140.537C66.2136 140.777 66.0988 141.324 65.9902 141.764C65.8847 142.227 65.8362 142.687 65.751 143.13C65.4397 144.903 65.1095 146.425 64.9493 147.669C64.8759 148.292 64.8463 148.853 64.9252 149.321C65.0295 149.774 65.1814 150.175 65.269 150.491C65.3577 150.79 65.4285 151.028 65.4837 151.216C65.5301 151.379 65.5496 151.464 65.5423 151.466C65.5346 151.468 65.5005 151.388 65.4401 151.229C65.3738 151.046 65.2892 150.812 65.1832 150.519C65.0795 150.199 64.9228 149.835 64.7942 149.346C64.6976 148.855 64.7154 148.283 64.7754 147.65C64.9119 146.384 65.2145 144.873 65.5022 143.096C65.5814 142.654 65.6243 142.185 65.7274 141.708C65.7807 141.469 65.8331 141.225 65.9246 140.982C66.0195 140.745 66.1215 140.473 66.3937 140.294C66.6842 140.113 67.006 140.18 67.2783 140.282C67.6298 140.483 67.6423 140.821 67.7038 141.086C67.7802 141.645 67.7562 142.206 67.7265 142.777C67.6717 143.915 67.494 145.111 67.5198 146.32C67.5261 146.471 67.5439 146.616 67.5736 146.75C67.6053 146.896 67.6797 146.951 67.665 146.924C67.6912 146.929 67.8054 146.799 67.8699 146.682C67.9408 146.553 68.0043 146.413 68.0602 146.268C68.2843 145.684 68.433 145.044 68.5527 144.394C68.6777 143.747 68.7192 143.071 68.8104 142.376C68.8969 141.686 68.995 140.986 69.1056 140.277C69.2173 139.567 69.3402 138.85 69.4861 138.123C69.6527 137.393 69.7588 136.671 70.1138 135.911C70.1351 135.834 70.29 135.663 70.377 135.622C70.4716 135.565 70.5788 135.523 70.6918 135.49C70.9205 135.429 71.2008 135.463 71.4078 135.603C71.8204 135.894 71.9502 136.346 72.0197 136.748C72.0822 137.16 72.0613 137.576 72.0145 137.973C71.9698 138.357 71.9381 138.749 71.9101 139.142C71.819 140.71 71.7328 142.352 71.9621 143.943C71.997 144.136 72.0393 144.332 72.106 144.498L72.2183 144.692L72.2554 144.722L72.2582 144.723L72.2589 144.725C72.2463 144.901 72.2571 144.763 72.254 144.797L72.2236 144.732C72.262 144.701 72.3824 144.495 72.4404 144.321C72.5063 144.133 72.5657 143.94 72.6163 143.739C72.8205 142.939 72.958 142.103 73.0861 141.262C73.3347 139.575 73.5246 137.846 73.683 136.096L73.6827 136.133C73.6743 135.557 73.6642 134.952 74.0621 134.355C74.295 134.061 74.7142 133.901 75.1076 134.049C75.4979 134.232 75.6417 134.58 75.7513 134.87C76.0484 135.829 76.0379 136.769 76.0407 137.697C76.0264 138.624 75.9621 139.541 75.8766 140.446C75.79 141.352 75.6811 142.248 75.5555 143.134C75.4867 143.577 75.419 144.017 75.3505 144.457C75.2947 144.736 75.3084 144.745 75.3917 144.827C75.4822 144.896 75.6556 144.885 75.7405 144.814C75.8361 144.749 75.8473 144.619 75.8679 144.376L75.9255 143.725C75.9684 143.291 76.0117 142.859 76.0546 142.429C76.1493 141.57 76.2645 140.72 76.4114 139.884C76.5633 139.046 76.7371 138.22 77.0125 137.42C77.1525 137.02 77.3134 136.625 77.5574 136.257C77.682 136.075 77.8265 135.894 78.038 135.76C78.2548 135.635 78.4932 135.522 78.8179 135.647C79.1254 135.815 79.1781 136.1 79.2266 136.308C79.2592 136.526 79.2731 136.739 79.2665 136.944C79.2594 137.357 79.2155 137.756 79.1653 138.15C79.0609 138.936 78.9205 139.7 78.7882 140.452C78.5439 141.946 78.2067 143.431 78.324 144.796C78.3418 144.964 78.3865 145.117 78.4434 145.252L78.5401 145.402L78.5216 145.435L78.5142 145.432L78.5184 145.382C78.6765 145.188 78.7879 144.812 78.886 144.503C79.0805 143.849 79.2368 143.187 79.405 142.542C79.5736 141.896 79.7443 141.263 79.9664 140.651C80.0784 140.347 80.2016 140.046 80.3751 139.762C80.4697 139.623 80.5623 139.48 80.7169 139.364C80.7846 139.304 80.8858 139.261 80.9839 139.232C81.1008 139.214 81.1954 139.217 81.2719 139.232C81.4486 139.239 81.6869 139.394 81.7452 139.579C81.8182 139.753 81.8339 139.919 81.8419 140.075C81.8569 140.391 81.822 140.687 81.7923 140.981C81.7222 141.565 81.6136 142.121 81.5072 142.662C81.2893 143.739 81.0523 144.758 80.7654 145.686C80.2051 147.546 79.6434 149.118 79.1796 150.401C78.7128 151.683 78.3334 152.672 78.0709 153.34C77.9442 153.654 77.8437 153.904 77.7651 154.098C77.6935 154.268 77.6534 154.353 77.6454 154.351Z" fill="#F6865E"></path>
<path d="M36.7399 175.473C38.1634 180.497 40.9451 188.26 43.9356 196.445C44.3678 197.628 46.0133 197.705 46.5516 196.566L53.8835 181.064C53.8835 181.064 52.1179 168.327 52.2677 168.777C52.4177 169.226 37.1409 170.425 37.1409 170.425L36.7399 175.473Z" fill="#9C3352"></path>
<path d="M56.5587 176.706C56.5274 176.738 56.3678 176.561 55.9984 176.455C55.6524 176.351 55.0055 176.352 54.5826 176.83L54.3878 177.049L54.2782 176.77C53.885 175.774 53.3969 174.472 52.8844 173.047C51.7019 169.756 50.8416 167.054 50.9624 167.011C51.0832 166.967 52.14 169.599 53.3225 172.89C53.8348 174.314 54.2866 175.63 54.6179 176.648L54.3138 176.589C54.6057 176.288 54.9737 176.162 55.2848 176.137C55.5997 176.107 55.8693 176.177 56.0682 176.264C56.4715 176.452 56.5818 176.693 56.5587 176.706Z" fill="#1D2A30"></path>
<path d="M46.1663 191.457C46.1104 191.425 46.5211 190.588 47.2295 189.26C47.9379 187.931 48.9444 186.113 50.0816 184.118C51.2185 182.122 52.2707 180.328 53.0521 179.042C53.8339 177.756 54.3453 176.976 54.4012 177.008C54.4567 177.039 54.0465 177.877 53.3381 179.205C52.63 180.533 51.6231 182.353 50.4856 184.348C49.3491 186.342 48.2968 188.136 47.5154 189.422C46.7337 190.709 46.2222 191.489 46.1663 191.457Z" fill="#1D2A30"></path>
<path d="M41.2856 189.127C41.265 189.092 41.73 188.772 42.5646 188.236C43.3996 187.701 44.6053 186.95 46.0662 186.056L45.9869 186.298C45.1757 184.396 44.2262 182.171 43.2052 179.779C41.9363 176.759 40.8 173.996 39.971 171.927L40.2153 172.011C39.0565 172.64 38.1126 173.143 37.4542 173.481C36.7959 173.818 36.4227 173.991 36.4056 173.96C36.3885 173.931 36.7299 173.701 37.3596 173.313C37.989 172.924 38.9071 172.375 40.045 171.709L40.2109 171.612L40.2904 171.793C41.1875 173.834 42.3657 176.578 43.6345 179.598C44.6291 182.002 45.5534 184.237 46.3436 186.148L46.4093 186.306L46.2645 186.39C44.7823 187.247 43.5476 187.949 42.6784 188.428C41.8096 188.907 41.3062 189.162 41.2856 189.127Z" fill="#FCFDFD"></path>
<path d="M81.0453 365.729C83.7593 365.644 85.9633 363.513 86.1312 360.803C87.6633 336.063 94.5438 223.535 93.1614 220.001C91.6083 216.032 87.5296 202.238 87.5296 202.238L51.0429 200.525C51.0429 200.525 41.9578 214.878 40.6509 220.372C39.4802 225.295 6.42231 329.464 2.31059 351.618C1.88821 353.893 3.24785 356.115 5.46341 356.78L81.0453 365.729Z" fill="#1D2A30"></path>
<path d="M58.247 201.325C58.247 201.325 58.1985 201.461 58.0833 201.716C57.9576 201.987 57.7844 202.361 57.5618 202.841C57.0881 203.846 56.4053 205.295 55.5302 207.151C55.1298 208.107 54.6851 209.168 54.1995 210.327C53.7073 211.485 53.1701 212.743 52.6849 214.131C52.1837 215.512 51.6164 216.976 51.0705 218.55C50.5552 220.135 50.0106 221.811 49.4389 223.568C48.9247 225.345 48.3857 227.206 47.8244 229.145C47.2955 231.092 46.7932 233.132 46.2462 235.236C45.7562 237.356 45.2497 239.547 44.7278 241.806C44.2527 244.074 43.7246 246.398 43.2533 248.8C42.2727 253.593 41.3124 258.64 40.2883 263.868C39.2512 269.092 38.1851 274.506 36.9019 280.011C36.2988 282.773 35.5817 285.475 34.9171 288.147C34.1858 290.802 33.482 293.424 32.6988 295.973C31.1454 301.075 29.4496 305.934 27.7143 310.515C24.217 319.669 20.6003 327.722 17.4373 334.418C14.2681 341.111 11.568 346.461 9.69035 350.152C8.7503 351.978 8.0162 353.402 7.50656 354.39C7.25906 354.858 7.06673 355.222 6.92675 355.486C6.79375 355.731 6.71521 355.853 6.71521 355.853C6.71521 355.853 6.76513 355.718 6.88451 355.464C7.01437 355.195 7.19344 354.825 7.42313 354.348C7.91428 353.35 8.62184 351.913 9.52869 350.07C11.3562 346.356 14.0108 340.985 17.1392 334.278C20.2624 327.569 23.8439 319.511 27.3133 310.364C29.0349 305.785 30.7182 300.933 32.2624 295.84C33.0412 293.296 33.7411 290.679 34.4692 288.029C35.1314 285.361 35.8457 282.665 36.4485 279.907C37.7296 274.41 38.7985 269 39.8412 263.779C40.8716 258.555 41.8407 253.508 42.8337 248.714C43.3106 246.314 43.846 243.985 44.3284 241.716C44.8587 239.458 45.3736 237.265 45.8714 235.144C46.4278 233.038 46.9395 230.997 47.4784 229.048C48.051 227.109 48.6004 225.247 49.1247 223.47C49.7087 221.712 50.2644 220.038 50.7909 218.454C51.3483 216.881 51.9281 215.416 52.4419 214.037C52.9398 212.651 53.4899 211.396 53.9946 210.241C54.4952 209.085 54.9525 208.03 55.3654 207.076C56.2583 205.208 56.9935 203.776 57.478 202.799C57.7185 202.328 57.9053 201.961 58.0414 201.694C58.1706 201.446 58.247 201.325 58.247 201.325Z" fill="#365462"></path>
<path d="M26.0281 358.957C26.0281 358.957 26.0515 358.815 26.1209 358.547C26.1977 358.26 26.3031 357.865 26.4386 357.359C26.7335 356.295 27.159 354.763 27.704 352.801C28.8084 348.821 30.3967 343.1 32.3571 336.038C34.3049 328.957 36.5778 320.513 39.0422 311.121C40.2531 306.419 41.5241 301.483 42.8418 296.368C44.1236 291.242 45.4498 285.937 46.8083 280.5C48.1191 275.052 49.3984 269.732 50.6345 264.594C51.8332 259.448 52.9901 254.484 54.0917 249.754C56.2528 240.286 58.1448 231.748 59.694 224.569C61.2232 217.402 62.4621 211.595 63.3236 207.557C63.7488 205.566 64.0804 204.01 64.3108 202.931C64.425 202.419 64.514 202.021 64.5785 201.731C64.642 201.461 64.6857 201.325 64.6857 201.325C64.6857 201.325 64.6732 201.467 64.6253 201.74C64.5715 202.033 64.4976 202.434 64.4023 202.95C64.1921 204.033 63.8892 205.594 63.501 207.593C63.095 209.615 62.6007 212.077 62.0275 214.931C61.4348 217.791 60.7608 221.044 60.0158 224.638C58.5075 231.827 56.6487 240.375 54.5096 249.85C53.4267 254.583 52.3017 259.557 51.0782 264.699C49.8449 269.84 48.568 275.161 47.2603 280.612C45.8979 286.048 44.5686 291.355 43.2841 296.48C41.9904 301.604 40.687 306.532 39.4568 311.23C36.9694 320.618 34.6627 329.056 32.6741 336.127C31.6715 339.657 30.7646 342.852 29.967 345.663C29.154 348.46 28.4531 350.871 27.8781 352.851C27.2969 354.803 26.8435 356.326 26.5286 357.385C26.3747 357.885 26.2539 358.277 26.1663 358.56C26.0825 358.824 26.0281 358.957 26.0281 358.957Z" fill="#365462"></path>
<path d="M69.5064 201.392C69.5064 201.392 69.5371 201.531 69.5742 201.808C69.6112 202.104 69.6625 202.512 69.7273 203.036C69.7912 203.583 69.8694 204.25 69.9613 205.035C70.0523 205.826 70.0712 206.745 70.1382 207.776C70.1665 208.293 70.1961 208.838 70.2279 209.41C70.229 209.985 70.2307 210.587 70.2325 211.215C70.2329 211.844 70.2335 212.5 70.2338 213.183C70.2279 213.866 70.1749 214.574 70.1452 215.307C70.1082 216.041 70.0694 216.799 70.0296 217.583C69.9581 218.364 69.8844 219.17 69.8084 219.999C69.6872 221.661 69.4048 223.401 69.1821 225.236C68.6264 228.891 67.8912 232.874 66.9589 237.118C66.0191 241.36 64.9161 245.868 63.7704 250.612C62.6297 255.358 61.445 260.342 60.4563 265.555C59.4867 270.772 58.6443 276.204 57.9378 281.79C57.2243 287.377 56.6229 292.844 56.0427 298.126C55.467 303.408 54.8838 308.502 54.2729 313.348C53.942 315.767 53.6184 318.128 53.3049 320.42C52.9339 322.706 52.6023 324.927 52.2291 327.068C51.8207 329.203 51.4667 331.271 51.0524 333.245C50.6114 335.214 50.2118 337.108 49.7877 338.907C49.3182 340.694 48.8714 342.396 48.4486 344.007C47.9976 345.61 47.4974 347.099 47.0691 348.503C46.8446 349.202 46.6502 349.884 46.4226 350.527C46.1856 351.167 45.9566 351.781 45.7377 352.372C45.2997 353.548 44.8986 354.624 44.5373 355.594C43.7452 357.503 43.0628 358.957 42.6261 359.951C42.4073 360.431 42.2368 360.805 42.113 361.077C41.9953 361.33 41.9241 361.454 41.9241 361.454C41.9241 361.454 41.9663 361.315 42.0696 361.056C42.1838 360.781 42.3399 360.401 42.5406 359.913C42.9493 358.906 43.6038 357.443 44.369 355.528C44.7181 354.555 45.1056 353.476 45.529 352.297C45.7415 351.706 45.9636 351.09 46.194 350.449C46.4149 349.806 46.6034 349.124 46.8212 348.425C47.2367 347.019 47.7243 345.529 48.1634 343.928C48.5753 342.317 49.0106 340.616 49.4676 338.83C49.8603 337.029 50.2719 335.14 50.7001 333.173C51.1047 331.201 51.4492 329.134 51.8486 327.003C52.2134 324.864 52.5362 322.644 52.8997 320.361C53.2068 318.071 53.5234 315.712 53.8473 313.294C54.446 308.45 55.0199 303.359 55.5892 298.077C56.1631 292.794 56.7618 287.323 57.4767 281.73C58.1832 276.139 59.0307 270.697 60.0085 265.469C61.0058 260.244 62.2007 255.255 63.3536 250.511C64.5112 245.768 65.6275 241.267 66.5822 237.035C67.5293 232.8 68.2812 228.83 68.8568 225.188C69.0889 223.359 69.3818 221.626 69.5138 219.969C69.5954 219.144 69.675 218.341 69.7522 217.563C69.7978 216.781 69.8425 216.025 69.8859 215.293C69.9211 214.562 69.9804 213.857 69.9926 213.177C69.9986 212.497 70.0049 211.843 70.0104 211.215C70.0161 210.588 70.021 209.988 70.0262 209.414C70.0021 208.844 69.9791 208.3 69.9571 207.784C69.9044 206.755 69.9002 205.837 69.8234 205.047C69.749 204.262 69.6859 203.594 69.6341 203.045C69.5885 202.521 69.5532 202.111 69.527 201.813C69.5057 201.536 69.5064 201.392 69.5064 201.392Z" fill="#365462"></path>
<path d="M65.5239 364.663C65.5239 364.663 65.4844 364.526 65.4293 364.251C65.3735 363.957 65.2966 363.552 65.1982 363.033C65.099 362.49 64.9783 361.827 64.8362 361.048C64.6998 360.262 64.5088 359.361 64.4139 358.328C64.2948 357.296 64.1632 356.151 64.0191 354.901C63.8487 353.65 63.8393 352.276 63.7331 350.808C63.6948 350.073 63.6386 349.313 63.611 348.527C63.6058 347.741 63.6005 346.93 63.5952 346.095C63.59 345.259 63.5848 344.402 63.5796 343.52C63.612 342.639 63.6445 341.734 63.6787 340.809C63.7153 339.883 63.7534 338.935 63.7921 337.965C63.8693 336.998 63.9479 336.01 64.0281 335.003C64.1601 332.983 64.4135 330.894 64.6645 328.729C64.8906 326.562 65.2729 324.34 65.586 322.04C65.9774 319.753 66.3387 317.391 66.8011 314.987C68.5618 305.35 71.0061 294.864 73.2328 283.795C75.4508 272.723 76.9979 262.067 77.9278 252.327C78.8895 242.59 79.2602 233.78 79.3831 226.382C79.4254 222.682 79.4135 219.335 79.3681 216.396C79.3109 213.457 79.2406 210.927 79.1527 208.858C79.0906 206.789 78.9827 205.186 78.9423 204.097C78.9209 203.567 78.9046 203.156 78.8927 202.857C78.8839 202.578 78.8916 202.435 78.8916 202.435C78.8916 202.435 78.9157 202.576 78.9401 202.855C78.9632 203.154 78.9949 203.563 79.0358 204.09C79.1066 205.179 79.2435 206.781 79.3332 208.85C79.4498 210.918 79.5461 213.45 79.6285 216.391C79.6984 219.331 79.7332 222.682 79.7119 226.387C79.6316 233.791 79.2941 242.615 78.3544 252.368C77.4468 262.122 75.9102 272.8 73.689 283.887C71.4606 294.966 69.0042 305.445 67.2232 315.065C66.7554 317.466 66.3878 319.822 65.9902 322.104C65.6712 324.398 65.2813 326.615 65.0474 328.777C64.7888 330.935 64.5269 333.019 64.3859 335.033C64.3011 336.038 64.2176 337.023 64.136 337.988C64.092 338.954 64.049 339.898 64.0072 340.823C63.9681 341.746 63.93 342.648 63.8924 343.525C63.892 344.405 63.8916 345.261 63.8913 346.094C63.8909 346.927 63.8899 347.736 63.8895 348.521C63.9112 349.304 63.9611 350.062 63.9929 350.796C64.0867 352.26 64.0832 353.632 64.2396 354.88C64.3688 356.131 64.4872 357.274 64.5936 358.304C64.6743 359.337 64.8512 360.239 64.9727 361.026C65.0973 361.807 65.2031 362.471 65.29 363.016C65.3696 363.54 65.431 363.946 65.476 364.242C65.5152 364.519 65.5239 364.663 65.5239 364.663Z" fill="#365462"></path>
<path d="M85.547 202.145C85.547 202.145 85.5993 202.278 85.6789 202.544C85.7623 202.83 85.8761 203.224 86.0231 203.729C86.1725 204.259 86.3544 204.905 86.568 205.663C86.8036 206.423 86.9973 207.319 87.198 208.33C87.3956 209.342 87.6679 210.459 87.8666 211.699C88.0421 212.944 88.233 214.294 88.438 215.745C88.5546 217.208 88.6791 218.77 88.8115 220.427C88.8362 222.089 88.9459 223.847 88.906 225.69C88.8757 229.382 88.6101 233.421 88.129 237.733C87.6187 242.041 86.9213 246.624 86.0573 251.42C85.1637 256.211 84.2257 261.238 83.2529 266.45C82.2747 271.658 81.4146 277.075 80.639 282.641C79.8491 288.206 79.2246 293.658 78.7069 298.933C78.1714 304.205 77.8143 309.306 77.5036 314.165C77.2345 319.028 77.0156 323.651 76.9266 327.981C76.8089 332.311 76.7873 336.346 76.801 340.029C76.8219 343.712 76.8728 347.044 76.9668 349.968C77.0323 352.894 77.1612 355.412 77.238 357.471C77.3385 359.512 77.4163 361.104 77.4712 362.209C77.4928 362.736 77.5103 363.145 77.5229 363.443C77.5315 363.721 77.5246 363.864 77.5246 363.864C77.5246 363.864 77.4998 363.723 77.4753 363.446C77.452 363.148 77.4191 362.74 77.3773 362.215C77.3011 361.133 77.1731 359.538 77.0568 357.479C76.9528 355.422 76.7974 352.903 76.7067 349.977C76.588 347.051 76.5137 343.717 76.4718 340.032C76.4372 336.345 76.44 332.306 76.5408 327.972C76.6131 323.638 76.8184 319.008 77.0757 314.141C77.3751 309.275 77.7228 304.168 78.2531 298.889C78.7659 293.608 79.3876 288.148 80.1782 282.576C80.9546 277.006 81.8196 271.579 82.805 266.367C83.7862 261.158 84.7336 256.133 85.6356 251.344C86.5104 246.555 87.2197 241.983 87.7461 237.688C88.2418 233.39 88.5256 229.366 88.5769 225.687C88.6275 223.849 88.5287 222.098 88.5158 220.441C88.3964 218.79 88.2843 217.23 88.1793 215.773C87.9887 214.326 87.8111 212.977 87.6476 211.735C87.4623 210.496 87.204 209.38 87.0208 208.368C86.834 207.355 86.6553 206.459 86.4339 205.696C86.237 204.936 86.0698 204.287 85.933 203.754C85.8052 203.244 85.7058 202.847 85.6335 202.558C85.5686 202.287 85.547 202.145 85.547 202.145Z" fill="#365462"></path>
<path d="M359.099 160.286L269.696 172.911C266.378 173.38 263.308 171.069 262.839 167.751L250.954 83.5662C250.486 80.2468 252.796 77.1768 256.115 76.7085L345.517 64.0834C348.836 63.6151 351.905 65.9254 352.374 69.2439L364.258 153.428C364.728 156.747 362.418 159.817 359.099 160.286Z" fill="#9C3352"></path>
<path d="M322.763 107.166C322.876 107.246 321.994 108.719 320.474 111.032C318.954 113.344 316.799 116.5 314.365 119.948C313.455 121.223 312.575 122.455 311.751 123.614L311.475 123.998L311.086 123.741C305.86 120.297 302.161 117.683 302.285 117.489C302.41 117.296 306.319 119.583 311.614 122.921L310.951 123.049C311.767 121.884 312.634 120.644 313.53 119.36C315.964 115.912 318.213 112.823 319.884 110.616C321.557 108.409 322.645 107.084 322.763 107.166Z" fill="#9C3352"></path>
<path d="M334.327 270.847L265.629 253.527C262.381 252.707 260.409 249.409 261.229 246.16L277.5 181.602C278.319 178.352 281.618 176.382 284.868 177.201L353.565 194.52C356.814 195.34 358.784 198.638 357.965 201.888L341.694 266.446C340.874 269.696 337.577 271.666 334.327 270.847Z" fill="#365462"></path>
<path d="M255.655 385.638L143.209 385.118C129.685 385.057 118.771 374.043 118.828 360.518L120.02 78.5755C120.077 65.0424 131.095 54.119 144.627 54.1816L257.073 54.7008C270.597 54.7634 281.511 65.7761 281.453 79.3021L280.262 361.244C280.205 374.778 269.186 385.701 255.655 385.638Z" fill="#1D2A30"></path>
<path d="M255.981 62.6185L234.18 62.5175C231.256 62.505 228.875 64.9717 228.863 68.0284L228.845 71.9832C228.834 75.0407 226.452 77.5083 223.529 77.494L181.034 77.2974C178.11 77.2849 175.751 74.7949 175.763 71.7392L175.78 67.7826C175.793 64.7269 173.433 62.2378 170.509 62.2235L162.841 62.1877L143.76 62.1001C134.284 62.0563 126.567 69.7059 126.527 79.1841L125.364 354.381C125.323 363.853 132.968 371.567 142.439 371.61L254.66 372.128C264.136 372.173 271.852 364.522 271.893 355.045L273.057 79.8481C273.096 70.3745 265.453 62.6623 255.981 62.6185Z" fill="#E1C2CA"></path>
<rect x="127.04" y="79.3856" width="146.001" height="293.582" rx="10" fill="url(#pattern0)"></rect>
<path d="M260.967 87.0827C260.967 87.2116 258.14 87.3154 254.655 87.3154C251.169 87.3154 248.344 87.2116 248.344 87.0827C248.344 86.9539 251.169 86.8492 254.655 86.8492C258.14 86.8492 260.967 86.9539 260.967 87.0827Z" fill="#1D2A30"></path>
<path d="M260.967 89.713C260.967 89.841 258.14 89.9457 254.655 89.9457C251.169 89.9457 248.344 89.841 248.344 89.713C248.344 89.5841 251.169 89.4794 254.655 89.4794C258.14 89.4794 260.967 89.5841 260.967 89.713Z" fill="#1D2A30"></path>
<path d="M260.967 92.3425C260.967 92.4714 258.14 92.576 254.655 92.576C251.169 92.576 248.344 92.4714 248.344 92.3425C248.344 92.2145 251.169 92.1098 254.655 92.1098C258.14 92.1098 260.967 92.2145 260.967 92.3425Z" fill="#1D2A30"></path>
<path d="M205.314 272.586L204.79 308.556L200.14 308.52L201.136 272.553L205.314 272.586Z" fill="#FCFDFD"></path>
<path d="M179.693 272.386L179.022 308.355L174.011 308.316L174.83 272.347L179.693 272.386Z" fill="#FCFDFD"></path>
<path d="M208.248 260.313L207.972 272.666L203.411 272.571L203.73 260.277L208.248 260.313Z" fill="#FCFDFD"></path>
<path d="M175.85 260.121L175.409 272.363L170.395 272.322L170.664 260.018L175.85 260.121Z" fill="#FCFDFD"></path>
<path d="M229.299 287.437L229.003 307.82L226.368 307.799L226.933 287.419L229.299 287.437Z" fill="#FCFDFD"></path>
<path d="M230.962 280.482L230.807 287.482L228.222 287.428L228.402 280.463L230.962 280.482Z" fill="#FCFDFD"></path>
<path d="M212.603 280.373L212.352 287.311L209.511 287.288L209.664 280.316L212.603 280.373Z" fill="#FCFDFD"></path>
<ellipse cx="324.935" cy="118.51" rx="23.3286" ry="23.3036" fill="white"></ellipse>
<rect width="37.6364" height="25.2129" transform="matrix(0.996381 -0.0849948 0.0851764 0.996366 308 107.199)" fill="url(#pattern1)"></rect>
<path d="M333.129 221.42C334.633 231.883 327.362 241.585 316.888 243.088C306.414 244.59 296.703 237.329 295.197 226.865C293.693 216.401 300.963 206.7 311.436 205.197C321.911 203.693 331.623 210.957 333.129 221.42" fill="black"></path>
<mask id="mask0" style="mask-type:alpha" maskUnits="userSpaceOnUse" x="297" y="207" width="36" height="36">
<path d="M331.857 222.295C333.233 231.862 326.586 240.731 317.01 242.104C307.435 243.478 298.557 236.84 297.18 227.274C295.805 217.708 302.452 208.839 312.026 207.465C321.602 206.089 330.481 212.731 331.857 222.295" fill="black"></path>
</mask>
<g mask="url(#mask0)">
<rect x="298.828" y="208.199" width="31.9973" height="36.5684" fill="url(#pattern2)"></rect>
</g>
<defs>
<pattern id="pattern0" patternContentUnits="objectBoundingBox" width="1" height="1">
<use xlink:href="#image0" transform="translate(0 -0.0387509) scale(0.000925926 0.000460471)"></use>
</pattern>
<pattern id="pattern1" patternContentUnits="objectBoundingBox" width="1" height="1">
<use xlink:href="#image1" transform="translate(0 -0.135353) scale(0.000655738 0.000978848)"></use>
</pattern>
<pattern id="pattern2" patternContentUnits="objectBoundingBox" width="1" height="1">
<use xlink:href="#image2" transform="translate(-0.25 -0.0517949) scale(0.00639648 0.00572484)"></use>
</pattern>
</defs>
</svg>